<?xml version="1.0" encoding="utf-8"?>
<!-- Generator: Adobe Illustrator 26.0.3, SVG Export Plug-In . SVG Version: 6.00 Build 0)  -->
<svg version="1.1" id="Layer_1" xmlns="http://www.w3.org/2000/svg" xmlns:xlink="http://www.w3.org/1999/xlink" x="0px" y="0px"
	 viewBox="0 0 49 49" style="enable-background:new 0 0 49 49;" xml:space="preserve">
<style type="text/css">
	.st0{fill:#17B7EA;}
</style>
<g>
	<path class="st0" d="M14.4,19.1l-1,2.3c-0.2,0.4-0.3,0.7-0.4,0.8c-0.1,0.1-0.2,0.2-0.4,0.2c-0.1,0-0.2-0.1-0.3-0.2
		c-0.1-0.1-0.2-0.3-0.4-0.8c-0.2-0.4-0.4-0.8-0.6-1.2l-1.1-2.6c-0.2-0.4-0.3-0.5-0.5-0.5c-0.2,0-0.3,0.2-0.3,0.5
		c0,0.7-0.1,1.3-0.1,1.9c0,0.6,0,1,0.1,1.2c0,0.1,0.1,0.2,0.2,0.3c0.1,0.1,0.2,0.2,0.5,0.3c0.2,0.1,0.3,0.3,0.3,0.5
		c0,0.6-0.8,1-2.5,1c-1.4,0-2.1-0.3-2.1-0.9c0-0.2,0-0.3,0.1-0.3c0.1-0.1,0.3-0.2,0.6-0.3c0.2-0.1,0.3-0.2,0.4-0.4
		C6.9,20.8,6.9,20.5,7,20c0.1-0.5,0.1-1.2,0.1-2.3c0-1.1,0.1-2,0.1-2.7c0-0.9-0.1-1.6-0.2-1.9C6.9,13,6.9,13,6.8,12.9
		c-0.1-0.1-0.2-0.1-0.4-0.2c-0.4-0.2-0.6-0.4-0.6-0.8c0-0.2,0.1-0.4,0.2-0.6c0.2-0.2,0.4-0.3,0.6-0.4c0.3-0.1,0.6-0.1,1-0.2
		s0.8-0.1,1.1-0.1c0.7,0,1.3,0.1,1.6,0.2c0.1,0.1,0.3,0.1,0.4,0.2c0.1,0.1,0.2,0.3,0.4,0.6l1.8,3.3c0.2,0.4,0.3,0.6,0.4,0.7
		c0.1,0.1,0.2,0.1,0.3,0.1c0.1,0,0.2,0,0.3-0.1s0.2-0.2,0.3-0.5l1.2-2.4c0.1-0.3,0.2-0.5,0.3-0.6c0.3-0.6,0.6-1,0.8-1.1
		c0.4-0.2,1-0.4,1.9-0.4c1.6,0,2.4,0.4,2.4,1.1c0,0.2,0,0.3-0.1,0.4c-0.1,0.1-0.2,0.2-0.4,0.4c-0.3,0.2-0.4,0.5-0.5,0.9
		c-0.1,0.8-0.2,1.8-0.2,2.9c0,1.5,0.1,2.8,0.2,3.9c0,0.3,0.1,0.5,0.2,0.6c0.1,0.1,0.3,0.2,0.6,0.4c0.2,0.1,0.3,0.3,0.3,0.6
		c0,0.4-0.3,0.7-0.8,0.9c-0.3,0.1-0.6,0.2-0.9,0.2c-0.3,0-0.8,0-1.4,0c-1,0-1.7-0.1-2.2-0.2c-0.5-0.2-0.8-0.4-0.8-0.8
		c0-0.1,0-0.3,0.1-0.3c0.1-0.1,0.2-0.3,0.5-0.5c0.1-0.1,0.3-0.4,0.3-0.7s0.1-0.9,0.1-1.8c0-0.5,0-0.8-0.1-0.9c0-0.1-0.1-0.2-0.3-0.2
		c-0.2,0-0.3,0.1-0.5,0.3C14.9,18,14.7,18.5,14.4,19.1z"/>
	<path class="st0" d="M25.2,18.7c0.7,0,1.3,0.1,1.9,0.2c0.8,0.2,1.2,0.5,1.2,1c0,0.2,0,0.3-0.1,0.4c-0.1,0.1-0.3,0.2-0.6,0.4
		c-0.3,0.1-0.4,0.4-0.5,0.9s-0.1,1.3-0.1,2.6c0,2.2,0.1,3.6,0.2,4.1c0,0.2,0.1,0.3,0.2,0.4s0.2,0.2,0.4,0.3c0.4,0.2,0.6,0.4,0.6,0.8
		c0,0.5-0.4,0.8-1.1,1c-0.8,0.2-1.7,0.3-2.8,0.3c-1.9,0-2.8-0.4-2.8-1.1c0-0.3,0.2-0.5,0.6-0.7c0.3-0.2,0.4-0.4,0.5-0.7
		c0.1-0.7,0.2-2.1,0.2-4.2c0-1.5-0.1-2.4-0.2-2.8c-0.1-0.2-0.3-0.4-0.6-0.6c-0.2-0.2-0.4-0.3-0.5-0.4c-0.1-0.1-0.1-0.2-0.1-0.4
		c0-0.2,0.1-0.4,0.4-0.6c0.2-0.1,0.7-0.3,1.3-0.4C23.7,18.8,24.5,18.7,25.2,18.7z"/>
	<path class="st0" d="M37.4,34.1l-1,2.3c-0.2,0.4-0.3,0.7-0.4,0.8c-0.1,0.1-0.2,0.2-0.4,0.2c-0.1,0-0.2-0.1-0.3-0.2
		c-0.1-0.1-0.2-0.3-0.4-0.8c-0.2-0.4-0.4-0.8-0.6-1.2l-1.1-2.6c-0.2-0.4-0.3-0.5-0.5-0.5c-0.2,0-0.3,0.2-0.3,0.5
		c0,0.7-0.1,1.3-0.1,1.9c0,0.6,0,1,0.1,1.2c0,0.1,0.1,0.2,0.2,0.3s0.2,0.2,0.5,0.3c0.2,0.1,0.3,0.3,0.3,0.5c0,0.6-0.8,1-2.5,1
		c-1.4,0-2.1-0.3-2.1-0.9c0-0.2,0-0.3,0.1-0.3c0.1-0.1,0.3-0.2,0.6-0.3c0.2-0.1,0.3-0.2,0.4-0.4c0.1-0.1,0.1-0.4,0.2-0.9
		c0.1-0.5,0.1-1.2,0.1-2.3c0-1.1,0.1-2,0.1-2.7c0-0.9-0.1-1.6-0.2-1.9c-0.1-0.1-0.1-0.2-0.2-0.3c-0.1-0.1-0.2-0.1-0.4-0.2
		c-0.4-0.2-0.6-0.4-0.6-0.8c0-0.2,0.1-0.4,0.2-0.6c0.2-0.2,0.4-0.3,0.6-0.4c0.3-0.1,0.6-0.1,1-0.2c0.4-0.1,0.8-0.1,1.1-0.1
		c0.7,0,1.3,0.1,1.6,0.2c0.1,0.1,0.3,0.1,0.4,0.2c0.1,0.1,0.2,0.3,0.4,0.6l1.8,3.3c0.2,0.4,0.3,0.6,0.4,0.7c0.1,0.1,0.2,0.1,0.3,0.1
		c0.1,0,0.2,0,0.3-0.1c0.1-0.1,0.2-0.2,0.3-0.5l1.2-2.4c0.1-0.3,0.2-0.5,0.3-0.6c0.3-0.6,0.6-1,0.8-1.1c0.4-0.2,1-0.4,1.9-0.4
		c1.6,0,2.4,0.4,2.4,1.1c0,0.2,0,0.3-0.1,0.4c-0.1,0.1-0.2,0.2-0.4,0.4c-0.3,0.2-0.4,0.5-0.5,0.9c-0.1,0.8-0.2,1.8-0.2,2.9
		c0,1.5,0.1,2.8,0.2,3.9c0,0.3,0.1,0.5,0.2,0.6c0.1,0.1,0.3,0.2,0.6,0.4c0.2,0.1,0.3,0.3,0.3,0.6c0,0.4-0.3,0.7-0.8,0.9
		c-0.3,0.1-0.6,0.2-0.9,0.2c-0.3,0-0.8,0-1.4,0c-1,0-1.7-0.1-2.2-0.2c-0.5-0.2-0.8-0.4-0.8-0.8c0-0.1,0-0.3,0.1-0.3
		c0.1-0.1,0.2-0.3,0.5-0.5c0.1-0.1,0.3-0.4,0.3-0.7s0.1-0.9,0.1-1.8c0-0.5,0-0.8-0.1-0.9c0-0.1-0.1-0.2-0.3-0.2
		c-0.2,0-0.3,0.1-0.5,0.3C37.9,33,37.7,33.5,37.4,34.1z"/>
</g>
</svg>
